<?xml version="1.0" encoding="UTF-8" standalone="no"?>
<!-- Created with Inkscape (http://www.inkscape.org/) -->

<svg
   xmlns:dc="http://purl.org/dc/elements/1.1/"
   xmlns:cc="http://creativecommons.org/ns#"
   xmlns:rdf="http://www.w3.org/1999/02/22-rdf-syntax-ns#"
   xmlns:svg="http://www.w3.org/2000/svg"
   xmlns="http://www.w3.org/2000/svg"
   xmlns:xlink="http://www.w3.org/1999/xlink"
   xmlns:sodipodi="http://sodipodi.sourceforge.net/DTD/sodipodi-0.dtd"
   xmlns:inkscape="http://www.inkscape.org/namespaces/inkscape"
   width="210mm"
   height="160mm"
   viewBox="0 0 744.09449 566.92913"
   id="svg8539"
   version="1.1"
   inkscape:version="0.92.4 (5da689c313, 2019-01-14)"
   sodipodi:docname="tis.svg"
   inkscape:export-filename="/home/user123/Research/pyretis/docs/_static/img/intro/tis.png"
   inkscape:export-xdpi="100"
   inkscape:export-ydpi="100">
  <defs
     id="defs8541">
    <marker
       inkscape:isstock="true"
       style="overflow:visible"
       id="marker10841"
       refX="0"
       refY="0"
       orient="auto"
       inkscape:stockid="Arrow2Mend">
      <path
         inkscape:connector-curvature="0"
         transform="scale(-0.6,-0.6)"
         d="M 8.7185878,4.0337352 -2.2072895,0.01601326 8.7185884,-4.0017078 c -1.7454984,2.3720609 -1.7354408,5.6174519 -6e-7,8.035443 z"
         style="fill:#ff6600;fill-opacity:1;fill-rule:evenodd;stroke:#ff6600;stroke-width:0.625;stroke-linejoin:round;stroke-opacity:1"
         id="path10843" />
    </marker>
    <g
       id="g9110">
      <symbol
         id="glyph0-0"
         overflow="visible"
         style="overflow:visible">
        <path
           id="path9113"
           d=""
           style="stroke:none"
           inkscape:connector-curvature="0" />
      </symbol>
      <symbol
         id="glyph0-1"
         overflow="visible"
         style="overflow:visible">
        <path
           id="path9116"
           d="m 5.0625,-13.46875 c -1.09375,0 -1.9375,0.34375 -2.671875,1.03125 -1.15625,1.125 -1.90625,3.40625 -1.90625,5.75 0,2.171875 0.65625,4.5 1.59375,5.609375 0.734375,0.875 1.75,1.359375 2.90625,1.359375 1.015625,0 1.875,-0.34375 2.578125,-1.03125 1.15625,-1.109375 1.921875,-3.40625 1.921875,-5.828125 0,-4.078125 -1.8125,-6.890625 -4.421875,-6.890625 z M 5,-12.953125 c 1.671875,0 2.5625,2.25 2.5625,6.421875 0,4.15625 -0.875,6.296875 -2.578125,6.296875 -1.71875,0 -2.59375,-2.140625 -2.59375,-6.28125 0,-4.21875 0.890625,-6.4375 2.609375,-6.4375 z m 0,0"
           style="stroke:none"
           inkscape:connector-curvature="0" />
      </symbol>
      <symbol
         id="glyph0-2"
         overflow="visible"
         style="overflow:visible">
        <path
           id="path9119"
           d="m 5.78125,-7.390625 c 1.96875,-1.0625 2.671875,-1.890625 2.671875,-3.25 0,-1.625 -1.4375,-2.828125 -3.4375,-2.828125 -2.171875,0 -3.78125,1.34375 -3.78125,3.15625 0,1.28125 0.375,1.859375 2.46875,3.703125 -2.15625,1.625 -2.59375,2.25 -2.59375,3.59375 0,1.9375 1.578125,3.296875 3.828125,3.296875 2.390625,0 3.921875,-1.3125 3.921875,-3.375 0,-1.53125 -0.671875,-2.5 -3.078125,-4.296875 z M 5.421875,-5.34375 c 1.453125,1.046875 1.921875,1.765625 1.921875,2.875 0,1.296875 -0.890625,2.1875 -2.1875,2.1875 -1.515625,0 -2.53125,-1.15625 -2.53125,-2.890625 0,-1.265625 0.4375,-2.109375 1.59375,-3.046875 z M 5.203125,-7.75 c -1.78125,-1.15625 -2.5,-2.078125 -2.5,-3.1875 0,-1.15625 0.90625,-1.96875 2.15625,-1.96875 1.359375,0 2.21875,0.875 2.21875,2.25 0,1.140625 -0.5625,2.03125 -1.703125,2.78125 -0.09375,0.0625 -0.09375,0.0625 -0.171875,0.125 z m 0,0"
           style="stroke:none"
           inkscape:connector-curvature="0" />
      </symbol>
      <symbol
         id="glyph0-3"
         overflow="visible"
         style="overflow:visible">
        <path
           id="path9122"
           d="m 5.796875,-13.46875 -3.578125,1.8125 0,0.28125 c 0.234375,-0.09375 0.453125,-0.171875 0.53125,-0.21875 0.359375,-0.140625 0.703125,-0.21875 0.890625,-0.21875 0.421875,0 0.609375,0.296875 0.609375,0.9375 l 0,9.015625 c 0,0.671875 -0.171875,1.125 -0.484375,1.296875 C 3.46875,-0.375 3.1875,-0.3125 2.34375,-0.296875 l 0,0.296875 5.5,0 0,-0.296875 C 6.28125,-0.3125 5.953125,-0.515625 5.953125,-1.46875 l 0,-11.953125 z m 0,0"
           style="stroke:none"
           inkscape:connector-curvature="0" />
      </symbol>
      <symbol
         id="glyph0-4"
         overflow="visible"
         style="overflow:visible">
        <path
           id="path9125"
           d="m 9.46875,-2.734375 -0.265625,-0.09375 c -0.734375,1.140625 -1,1.3125 -1.890625,1.3125 l -4.765625,0 3.34375,-3.5 c 1.78125,-1.859375 2.5625,-3.375 2.5625,-4.921875 0,-2 -1.625,-3.53125 -3.6875,-3.53125 -1.09375,0 -2.140625,0.4375 -2.875,1.234375 C 1.25,-11.546875 0.953125,-10.921875 0.625,-9.5 l 0.40625,0.09375 C 1.828125,-11.359375 2.546875,-12 3.921875,-12 c 1.671875,0 2.8125,1.140625 2.8125,2.8125 0,1.5625 -0.921875,3.40625 -2.59375,5.1875 L 0.59375,-0.234375 0.59375,0 8.359375,0 Z m 0,0"
           style="stroke:none"
           inkscape:connector-curvature="0" />
      </symbol>
      <symbol
         id="glyph0-5"
         overflow="visible"
         style="overflow:visible">
        <path
           id="path9128"
           d="m 9.40625,-4.609375 -2.03125,0 0,-8.859375 -0.875,0 -6.265625,8.859375 0,1.28125 5.609375,0 0,3.328125 1.53125,0 0,-3.328125 2.03125,0 z m -3.59375,0 -4.78125,0 4.78125,-6.828125 z m 0,0"
           style="stroke:none"
           inkscape:connector-curvature="0" />
      </symbol>
      <symbol
         id="glyph0-6"
         overflow="visible"
         style="overflow:visible">
        <path
           id="path9131"
           d="M 8.890625,-13.625 C 6.609375,-13.421875 5.453125,-13.046875 4,-12.03125 1.859375,-10.5 0.671875,-8.234375 0.671875,-5.5625 c 0,1.734375 0.546875,3.484375 1.40625,4.484375 0.75,0.875 1.828125,1.359375 3.0625,1.359375 2.46875,0 4.1875,-1.890625 4.1875,-4.640625 0,-2.546875 -1.453125,-4.171875 -3.75,-4.171875 -0.875,0 -1.296875,0.140625 -2.546875,0.90625 0.53125,-3.015625 2.765625,-5.171875 5.890625,-5.6875 z m -4.0625,6.015625 c 1.703125,0 2.703125,1.4375 2.703125,3.921875 0,2.1875 -0.78125,3.40625 -2.171875,3.40625 -1.75,0 -2.828125,-1.875 -2.828125,-4.953125 0,-1.015625 0.15625,-1.578125 0.5625,-1.875 0.40625,-0.328125 1.03125,-0.5 1.734375,-0.5 z m 0,0"
           style="stroke:none"
           inkscape:connector-curvature="0" />
      </symbol>
      <symbol
         id="glyph0-7"
         overflow="visible"
         style="overflow:visible">
        <path
           id="path9134"
           d="m 7.1875,-13.46875 c -3.796875,0 -6.515625,2.875 -6.515625,6.875 0,1.875 0.640625,3.6875 1.71875,4.84375 1.15625,1.25 2.921875,2.03125 4.6875,2.03125 3.921875,0 6.625,-2.796875 6.625,-6.796875 0,-1.96875 -0.578125,-3.671875 -1.671875,-4.859375 -1.25,-1.375 -2.921875,-2.09375 -4.84375,-2.09375 z m 0,0.71875 c 0.921875,0 1.84375,0.359375 2.546875,1 1.078125,0.96875 1.703125,2.84375 1.703125,5.21875 0,1.171875 -0.265625,2.546875 -0.65625,3.578125 -0.1875,0.5 -0.515625,1 -0.984375,1.453125 -0.6875,0.703125 -1.59375,1.0625 -2.640625,1.0625 -0.921875,0 -1.8125,-0.359375 -2.515625,-0.984375 -1.03125,-0.90625 -1.6875,-2.921875 -1.6875,-5.125 0,-2.046875 0.546875,-3.96875 1.390625,-4.90625 C 5.125,-12.3125 6.09375,-12.75 7.1875,-12.75 Z m 0,0"
           style="stroke:none"
           inkscape:connector-curvature="0" />
      </symbol>
      <symbol
         id="glyph0-8"
         overflow="visible"
         style="overflow:visible">
        <path
           id="path9137"
           d="m 0.140625,-7.765625 c 0.28125,-0.0625 0.453125,-0.078125 0.703125,-0.078125 0.484375,0 0.671875,0.3125 0.671875,1.1875 l 0,4.984375 c 0,1 -0.140625,1.140625 -1.421875,1.375 L 0.09375,0 4.875,0 l 0,-0.296875 c -1.34375,-0.0625 -1.6875,-0.359375 -1.6875,-1.5 l 0,-4.484375 c 0,-0.625 0.859375,-1.625 1.390625,-1.625 0.125,0 0.296875,0.09375 0.515625,0.296875 0.328125,0.28125 0.546875,0.390625 0.796875,0.390625 0.484375,0 0.78125,-0.328125 0.78125,-0.890625 0,-0.65625 -0.421875,-1.046875 -1.09375,-1.046875 -0.84375,0 -1.421875,0.453125 -2.390625,1.859375 l 0,-1.828125 -0.09375,-0.03125 c -1.0625,0.4375 -1.78125,0.6875 -2.953125,1.0625 z m 0,0"
           style="stroke:none"
           inkscape:connector-curvature="0" />
      </symbol>
      <symbol
         id="glyph0-9"
         overflow="visible"
         style="overflow:visible">
        <path
           id="path9140"
           d="m 6.859375,0.203125 2.921875,-1.046875 0,-0.3125 c -0.359375,0.015625 -0.390625,0.015625 -0.453125,0.015625 -0.71875,0 -0.875,-0.21875 -0.875,-1.125 l 0,-11.296875 -0.109375,-0.04687 c -0.953125,0.34375 -1.65625,0.546875 -2.921875,0.875 l 0,0.328125 c 0.15625,-0.03125 0.28125,-0.03125 0.4375,-0.03125 0.734375,0 0.90625,0.203125 0.90625,1.015625 l 0,3.109375 c -0.75,-0.625 -1.28125,-0.84375 -2.078125,-0.84375 -2.296875,0 -4.15625,2.25 -4.15625,5.078125 0,2.546875 1.5,4.28125 3.6875,4.28125 1.125,0 1.875,-0.40625 2.546875,-1.34375 l 0,1.28125 z M 6.765625,-2.03125 c 0,0.140625 -0.125,0.375 -0.328125,0.59375 C 6.078125,-1.03125 5.578125,-0.84375 5,-0.84375 c -1.65625,0 -2.75,-1.59375 -2.75,-4.03125 0,-2.25 0.984375,-3.734375 2.484375,-3.734375 1.0625,0 2.03125,0.9375 2.03125,2 z m 0,0"
           style="stroke:none"
           inkscape:connector-curvature="0" />
      </symbol>
      <symbol
         id="glyph0-10"
         overflow="visible"
         style="overflow:visible">
        <path
           id="path9143"
           d="m 8.125,-3.265625 c -0.953125,1.515625 -1.8125,2.09375 -3.078125,2.09375 -1.140625,0 -2,-0.578125 -2.578125,-1.71875 -0.359375,-0.75 -0.5,-1.40625 -0.53125,-2.625 l 6.125,0 C 7.90625,-6.8125 7.703125,-7.390625 7.21875,-8.03125 6.609375,-8.75 5.703125,-9.15625 4.65625,-9.15625 3.671875,-9.15625 2.734375,-8.8125 1.96875,-8.125 1.03125,-7.3125 0.5,-5.890625 0.5,-4.265625 c 0,2.75 1.4375,4.46875 3.71875,4.46875 1.890625,0 3.390625,-1.171875 4.234375,-3.328125 z M 1.96875,-6.15625 C 2.1875,-7.703125 2.875,-8.453125 4.078125,-8.453125 c 1.21875,0 1.703125,0.5625 1.953125,2.296875 z m 0,0"
           style="stroke:none"
           inkscape:connector-curvature="0" />
      </symbol>
      <symbol
         id="glyph0-11"
         overflow="visible"
         style="overflow:visible">
        <path
           id="path9146"
           d="m 0.171875,-7.828125 c 0.1875,-0.015625 0.328125,-0.015625 0.5,-0.015625 0.6875,0 0.828125,0.1875 0.828125,1.125 l 0,9.328125 c 0,1.03125 -0.21875,1.25 -1.40625,1.375 l 0,0.34375 4.828125,0 0,-0.359375 c -1.5,-0.03125 -1.75,-0.25 -1.75,-1.5 l 0,-3.125 c 0.6875,0.65625 1.171875,0.859375 2,0.859375 2.359375,0 4.1875,-2.234375 4.1875,-5.125 0,-2.46875 -1.390625,-4.234375 -3.328125,-4.234375 -1.109375,0 -1.984375,0.484375 -2.859375,1.5625 l 0,-1.53125 -0.125,-0.03125 C 1.96875,-8.75 1.28125,-8.484375 0.171875,-8.140625 Z m 3,1.171875 c 0,-0.59375 1.109375,-1.3125 2.03125,-1.3125 1.46875,0 2.453125,1.515625 2.453125,3.828125 0,2.203125 -0.984375,3.703125 -2.421875,3.703125 -0.9375,0 -2.0625,-0.71875 -2.0625,-1.3125 z m 0,0"
           style="stroke:none"
           inkscape:connector-curvature="0" />
      </symbol>
      <symbol
         id="glyph0-12"
         overflow="visible"
         style="overflow:visible">
        <path
           id="path9149"
           d="m 8.8125,-1.3125 c -0.34375,0.28125 -0.578125,0.375 -0.890625,0.375 -0.453125,0 -0.59375,-0.28125 -0.59375,-1.15625 l 0,-3.875 c 0,-1.046875 -0.09375,-1.625 -0.390625,-2.09375 C 6.5,-8.78125 5.640625,-9.15625 4.46875,-9.15625 c -1.875,0 -3.359375,0.96875 -3.359375,2.21875 0,0.46875 0.40625,0.859375 0.859375,0.859375 0.484375,0 0.90625,-0.390625 0.90625,-0.828125 C 2.875,-7 2.84375,-7.09375 2.828125,-7.234375 2.78125,-7.40625 2.765625,-7.5625 2.765625,-7.703125 c 0,-0.546875 0.640625,-0.984375 1.4375,-0.984375 0.96875,0 1.515625,0.578125 1.515625,1.65625 l 0,1.21875 c -3.0625,1.234375 -3.40625,1.390625 -4.265625,2.140625 -0.4375,0.40625 -0.71875,1.078125 -0.71875,1.734375 0,1.265625 0.875,2.140625 2.09375,2.140625 0.875,0 1.6875,-0.421875 2.90625,-1.453125 0.109375,1.03125 0.46875,1.453125 1.28125,1.453125 0.671875,0 1.09375,-0.25 1.796875,-1 z M 5.71875,-2.453125 c 0,0.625 -0.09375,0.796875 -0.515625,1.03125 -0.484375,0.28125 -1.046875,0.46875 -1.453125,0.46875 -0.703125,0 -1.265625,-0.6875 -1.265625,-1.53125 l 0,-0.078125 c 0,-1.1875 0.828125,-1.90625 3.234375,-2.78125 z m 0,0"
           style="stroke:none"
           inkscape:connector-curvature="0" />
      </symbol>
      <symbol
         id="glyph0-13"
         overflow="visible"
         style="overflow:visible">
        <path
           id="path9152"
           d="m 0.375,-7.921875 c 0.265625,-0.0625 0.421875,-0.09375 0.640625,-0.09375 0.515625,0 0.703125,0.328125 0.703125,1.28125 l 0,5.046875 c 0,1.0625 -0.28125,1.375 -1.40625,1.390625 l 0,0.296875 4.421875,0 0,-0.296875 C 3.6875,-0.34375 3.390625,-0.5625 3.390625,-1.328125 l 0,-5.625 c 0,-0.046875 0.15625,-0.234375 0.296875,-0.375 0.5,-0.46875 1.359375,-0.796875 2.046875,-0.796875 0.875,0 1.3125,0.6875 1.3125,2.09375 l 0,4.3125 c 0,1.125 -0.21875,1.34375 -1.34375,1.421875 l 0,0.296875 4.453125,0 0,-0.296875 C 9.03125,-0.3125 8.71875,-0.65625 8.71875,-1.890625 l 0,-5.015625 C 9.328125,-7.765625 9.984375,-8.125 10.890625,-8.125 c 1.140625,0 1.5,0.53125 1.5,2.1875 l 0,4.203125 c 0,1.140625 -0.15625,1.296875 -1.3125,1.4375 l 0,0.296875 4.359375,0 0,-0.296875 -0.515625,-0.046875 C 14.328125,-0.375 14.0625,-0.734375 14.0625,-1.515625 l 0,-4.109375 c 0,-2.34375 -0.78125,-3.53125 -2.3125,-3.53125 -1.15625,0 -2.171875,0.515625 -3.25,1.671875 C 8.140625,-8.625 7.46875,-9.15625 6.390625,-9.15625 c -0.875,0 -1.4375,0.265625 -3.078125,1.53125 l 0,-1.5 -0.140625,-0.03125 C 2.15625,-8.78125 1.46875,-8.5625 0.375,-8.265625 Z m 0,0"
           style="stroke:none"
           inkscape:connector-curvature="0" />
      </symbol>
      <symbol
         id="glyph0-14"
         overflow="visible"
         style="overflow:visible">
        <path
           id="path9155"
           d="m 5.078125,-8.96875 -2.015625,0 0,-2.3125 c 0,-0.1875 -0.015625,-0.25 -0.140625,-0.25 -0.140625,0.171875 -0.25,0.359375 -0.390625,0.546875 -0.765625,1.109375 -1.609375,2.0625 -1.9375,2.140625 -0.21875,0.140625 -0.328125,0.28125 -0.328125,0.375 0,0.0625 0.015625,0.109375 0.078125,0.140625 l 1.046875,0 0,6 c 0,1.671875 0.59375,2.53125 1.78125,2.53125 0.96875,0 1.734375,-0.484375 2.390625,-1.515625 L 5.296875,-1.53125 c -0.421875,0.5 -0.75,0.6875 -1.1875,0.6875 -0.75,0 -1.046875,-0.53125 -1.046875,-1.78125 l 0,-5.703125 2.015625,0 z m 0,0"
           style="stroke:none"
           inkscape:connector-curvature="0" />
      </symbol>
      <symbol
         id="glyph0-15"
         overflow="visible"
         style="overflow:visible">
        <path
           id="path9158"
           d="M 5.875,-13.46875 C 4.40625,-12.515625 3.8125,-12 3.0625,-11.078125 c -1.40625,1.734375 -2.109375,3.734375 -2.109375,6.0625 0,2.53125 0.734375,4.484375 2.5,6.515625 0.8125,0.953125 1.328125,1.390625 2.359375,2.03125 l 0.25,-0.328125 C 4.46875,1.953125 3.90625,1.25 3.359375,-0.234375 c -0.46875,-1.34375 -0.6875,-2.859375 -0.6875,-4.84375 0,-2.09375 0.25,-3.734375 0.796875,-4.96875 C 4.03125,-11.28125 4.625,-12 6.0625,-13.140625 Z m 0,0"
           style="stroke:none"
           inkscape:connector-curvature="0" />
      </symbol>
      <symbol
         id="glyph0-16"
         overflow="visible"
         style="overflow:visible">
        <path
           id="path9161"
           d="M 0.75,3.53125 C 2.234375,2.5625 2.828125,2.046875 3.5625,1.140625 4.984375,-0.59375 5.671875,-2.59375 5.671875,-4.921875 5.671875,-7.46875 4.9375,-9.40625 3.1875,-11.4375 2.375,-12.390625 1.859375,-12.828125 0.8125,-13.46875 l -0.234375,0.328125 c 1.59375,1.25 2.125,1.9375 2.6875,3.4375 0.484375,1.34375 0.703125,2.84375 0.703125,4.84375 0,2.078125 -0.265625,3.71875 -0.796875,4.9375 -0.5625,1.25 -1.15625,1.96875 -2.59375,3.125 z m 0,0"
           style="stroke:none"
           inkscape:connector-curvature="0" />
      </symbol>
      <symbol
         id="glyph0-17"
         overflow="visible"
         style="overflow:visible">
        <path
           id="path9164"
           d="m 3.046875,-6.578125 c 1.171875,0 1.640625,0.046875 2.109375,0.21875 1.234375,0.4375 2.015625,1.578125 2.015625,2.953125 0,1.671875 -1.140625,2.96875 -2.609375,2.96875 -0.53125,0 -0.9375,-0.140625 -1.671875,-0.625 -0.59375,-0.359375 -0.9375,-0.484375 -1.28125,-0.484375 -0.453125,0 -0.75,0.265625 -0.75,0.6875 0,0.703125 0.859375,1.140625 2.25,1.140625 1.53125,0 3.109375,-0.515625 4.046875,-1.34375 C 8.09375,-1.875 8.609375,-3.03125 8.609375,-4.359375 8.609375,-5.375 8.28125,-6.3125 7.703125,-6.9375 7.3125,-7.375 6.9375,-7.609375 6.0625,-7.984375 c 1.375,-0.9375 1.859375,-1.671875 1.859375,-2.75 0,-1.609375 -1.265625,-2.734375 -3.09375,-2.734375 -1,0 -1.875,0.34375 -2.59375,0.984375 -0.59375,0.53125 -0.90625,1.046875 -1.34375,2.25 l 0.296875,0.07813 c 0.828125,-1.453125 1.71875,-2.109375 2.96875,-2.109375 1.296875,0 2.203125,0.875 2.203125,2.125 0,0.71875 -0.296875,1.4375 -0.796875,1.9375 -0.609375,0.59375 -1.15625,0.890625 -2.515625,1.375 z m 0,0"
           style="stroke:none"
           inkscape:connector-curvature="0" />
      </symbol>
      <symbol
         id="glyph1-0"
         overflow="visible"
         style="overflow:visible">
        <path
           id="path9167"
           d=""
           style="stroke:none"
           inkscape:connector-curvature="0" />
      </symbol>
      <symbol
         id="glyph1-1"
         overflow="visible"
         style="overflow:visible">
        <path
           id="path9170"
           d="m 3.828125,-1.0625 c 0,-0.578125 -0.484375,-1.046875 -1.0625,-1.046875 -0.578125,0 -1.046875,0.46875 -1.046875,1.046875 0,0.578125 0.46875,1.0625 1.046875,1.0625 0.578125,0 1.0625,-0.484375 1.0625,-1.0625 z m 0,0"
           style="stroke:none"
           inkscape:connector-curvature="0" />
      </symbol>
      <symbol
         id="glyph2-0"
         overflow="visible"
         style="overflow:visible">
        <path
           id="path9173"
           d=""
           style="stroke:none"
           inkscape:connector-curvature="0" />
      </symbol>
      <symbol
         id="glyph2-1"
         overflow="visible"
         style="overflow:visible">
        <path
           id="path9176"
           d="m 3.390625,-11.359375 c 0.328125,-1.125 1.015625,-1.78125 1.90625,-1.78125 0.640625,0 1.09375,0.484375 1.25,1.390625 0.0625,0.390625 0.140625,1.046875 0.1875,1.8125 L 0.484375,0 2.34375,0 6.9375,-7.125 C 6.90625,-3.25 7,-1.828125 7.234375,-1.0625 c 0.296875,0.859375 0.859375,1.328125 1.59375,1.328125 0.78125,0 1.46875,-0.484375 1.953125,-1.359375 0.3125,-0.546875 0.46875,-1.078125 0.65625,-2.015625 l -0.421875,0 c -0.34375,1.03125 -0.875,1.609375 -1.59375,1.609375 -0.59375,0 -1.0625,-0.375 -1.25,-1.0625 -0.1875,-0.53125 -0.25,-1.046875 -0.265625,-2.515625 L 7.796875,-7.65625 c 0,-0.046875 0,-0.1875 -0.03125,-0.390625 -0.015625,-2.578125 -0.328125,-5 -0.6875,-5.71875 C 6.75,-14.40625 6.21875,-14.734375 5.5625,-14.734375 c -1.21875,0 -2.03125,1.03125 -2.65625,3.375 z m 0,0"
           style="stroke:none"
           inkscape:connector-curvature="0" />
      </symbol>
      <symbol
         id="glyph3-0"
         overflow="visible"
         style="overflow:visible">
        <path
           id="path9179"
           d=""
           style="stroke:none"
           inkscape:connector-curvature="0" />
      </symbol>
      <symbol
         id="glyph3-1"
         overflow="visible"
         style="overflow:visible">
        <path
           id="path9182"
           d="m -5.796875,-4.03125 c 0.046875,-0.515625 0.0625,-0.84375 0.0625,-1.375 0,-1.546875 -0.203125,-2.625 -0.6875,-3.484375 -0.625,-1.1875 -1.84375,-1.90625 -3.15625,-1.90625 -0.84375,0 -1.59375,0.28125 -2.171875,0.8125 -0.875,0.796875 -1.4375,2.53125 -1.4375,4.40625 l 0,5.265625 0.375,0 c 0.15625,-1.484375 0.359375,-1.671875 1.796875,-1.671875 l 8.625,0 c 1.671875,0 1.875,0.15625 2.015625,1.671875 l 0.375,0 0,-5.578125 -0.375,0 c -0.0625,1.5625 -0.34375,1.859375 -1.796875,1.859375 z m -5.984375,0 c -0.53125,0 -0.671875,-0.125 -0.671875,-0.671875 0,-2.6875 0.9375,-3.921875 2.984375,-3.921875 1.9375,0 2.9375,1.171875 2.9375,3.46875 0,0.390625 -0.015625,0.671875 -0.0625,1.125 z m 0,0"
           style="stroke:none"
           inkscape:connector-curvature="0" />
      </symbol>
      <symbol
         id="glyph3-2"
         overflow="visible"
         style="overflow:visible">
        <path
           id="path9185"
           d="m -9.15625,-4.984375 c 0,2.59375 1.90625,4.40625 4.65625,4.40625 2.6875,0 4.703125,-1.859375 4.703125,-4.359375 0,-2.515625 -2.109375,-4.421875 -4.859375,-4.421875 -2.609375,0 -4.5,1.828125 -4.5,4.375 z m 0.546875,0.265625 c 0,-1.671875 1.921875,-2.84375 4.640625,-2.84375 2.25,0 3.609375,0.890625 3.609375,2.390625 0,0.765625 -0.484375,1.5 -1.28125,1.921875 -1.03125,0.5625 -2.421875,0.875 -3.84375,0.875 -1.890625,0 -3.125,-0.9375 -3.125,-2.34375 z m 0,0"
           style="stroke:none"
           inkscape:connector-curvature="0" />
      </symbol>
      <symbol
         id="glyph3-3"
         overflow="visible"
         style="overflow:visible">
        <path
           id="path9188"
           d="m -8.96875,-5.078125 0,2.015625 -2.3125,0 c -0.1875,0 -0.25,0.015625 -0.25,0.140625 0.171875,0.140625 0.359375,0.25 0.546875,0.390625 1.109375,0.765625 2.0625,1.609375 2.140625,1.9375 0.140625,0.21875 0.28125,0.328125 0.375,0.328125 0.0625,0 0.109375,-0.015625 0.140625,-0.078125 l 0,-1.046875 6,0 c 1.671875,0 2.53125,-0.59375 2.53125,-1.78125 0,-0.96875 -0.484375,-1.734375 -1.515625,-2.390625 l -0.21875,0.265625 c 0.5,0.421875 0.6875,0.75 0.6875,1.1875 0,0.75 -0.53125,1.046875 -1.78125,1.046875 l -5.703125,0 0,-2.015625 z m 0,0"
           style="stroke:none"
           inkscape:connector-curvature="0" />
      </symbol>
      <symbol
         id="glyph3-4"
         overflow="visible"
         style="overflow:visible">
        <path
           id="path9191"
           d="m -3.265625,-8.125 c 1.515625,0.953125 2.09375,1.8125 2.09375,3.078125 0,1.140625 -0.578125,2 -1.71875,2.578125 -0.75,0.359375 -1.40625,0.5 -2.625,0.53125 l 0,-6.125 c -1.296875,0.15625 -1.875,0.359375 -2.515625,0.84375 -0.71875,0.609375 -1.125,1.515625 -1.125,2.5625 0,0.984375 0.34375,1.921875 1.03125,2.6875 0.8125,0.9375 2.234375,1.46875 3.859375,1.46875 2.75,0 4.46875,-1.4375 4.46875,-3.71875 0,-1.890625 -1.171875,-3.390625 -3.328125,-4.234375 z M -6.15625,-1.96875 C -7.703125,-2.1875 -8.453125,-2.875 -8.453125,-4.078125 c 0,-1.21875 0.5625,-1.703125 2.296875,-1.953125 z m 0,0"
           style="stroke:none"
           inkscape:connector-curvature="0" />
      </symbol>
      <symbol
         id="glyph3-5"
         overflow="visible"
         style="overflow:visible">
        <path
           id="path9194"
           d="m -7.921875,-0.3125 c -0.0625,-0.125 -0.09375,-0.328125 -0.09375,-0.546875 0,-0.5625 0.3125,-0.734375 1.28125,-0.734375 l 4.9375,0 c 1.140625,0 1.421875,0.21875 1.5,1.234375 l 0.296875,0 0,-4.21875 -0.296875,0 c -0.078125,1.015625 -0.328125,1.3125 -1.03125,1.3125 l -5.609375,0 c -0.890625,-0.953125 -1.125,-1.390625 -1.125,-2.046875 0,-0.984375 0.609375,-1.453125 1.921875,-1.453125 l 4.171875,0 c 1.25,0 1.59375,0.25 1.671875,1.25 l 0.296875,0 0,-4.140625 -0.296875,0 c -0.09375,0.96875 -0.34375,1.203125 -1.3125,1.203125 l -4.5625,0 c -1.875,0 -2.984375,0.890625 -2.984375,2.359375 0,0.921875 0.328125,1.53125 1.609375,2.890625 l -1.578125,0 -0.03125,0.140625 c 0.34375,0.96875 0.5625,1.640625 0.890625,2.75 z m 0,0"
           style="stroke:none"
           inkscape:connector-curvature="0" />
      </symbol>
      <symbol
         id="glyph3-6"
         overflow="visible"
         style="overflow:visible">
        <path
           id="path9197"
           d="m -9.15625,-3.484375 1.09375,3.09375 0.296875,0 -0.03125,-0.171875 c -0.03125,-0.234375 -0.046875,-0.5 -0.046875,-0.671875 0,-0.484375 0.3125,-0.65625 1.1875,-0.65625 l 4.625,0 c 1.4375,0 1.65625,0.203125 1.734375,1.578125 l 0.296875,0 0,-4.734375 -0.296875,0 C -0.390625,-3.71875 -0.59375,-3.5625 -2.03125,-3.5625 l -7.078125,0 z m -4.453125,0.9375 c 0,0.53125 0.46875,1 1.015625,1 0.5625,0 1.015625,-0.4375 1.015625,-1 0,-0.578125 -0.4375,-1.03125 -1.015625,-1.03125 -0.546875,0 -1.015625,0.453125 -1.015625,1.03125 z m 0,0"
           style="stroke:none"
           inkscape:connector-curvature="0" />
      </symbol>
      <symbol
         id="glyph3-7"
         overflow="visible"
         style="overflow:visible">
        <path
           id="path9200"
           d="m -1.3125,-8.8125 c 0.28125,0.34375 0.375,0.578125 0.375,0.890625 0,0.453125 -0.28125,0.59375 -1.15625,0.59375 l -3.875,0 c -1.046875,0 -1.625,0.09375 -2.09375,0.390625 -0.71875,0.4375 -1.09375,1.296875 -1.09375,2.46875 0,1.875 0.96875,3.359375 2.21875,3.359375 0.46875,0 0.859375,-0.40625 0.859375,-0.859375 0,-0.484375 -0.390625,-0.90625 -0.828125,-0.90625 -0.09375,0 -0.1875,0.03125 -0.328125,0.046875 -0.171875,0.046875 -0.328125,0.0625 -0.46875,0.0625 -0.546875,0 -0.984375,-0.640625 -0.984375,-1.4375 0,-0.96875 0.578125,-1.515625 1.65625,-1.515625 l 1.21875,0 c 1.234375,3.0625 1.390625,3.40625 2.140625,4.265625 0.40625,0.4375 1.078125,0.71875 1.734375,0.71875 1.265625,0 2.140625,-0.875 2.140625,-2.09375 0,-0.875 -0.421875,-1.6875 -1.453125,-2.90625 1.03125,-0.109375 1.453125,-0.46875 1.453125,-1.28125 0,-0.671875 -0.25,-1.09375 -1,-1.796875 z m -1.140625,3.09375 c 0.625,0 0.796875,0.09375 1.03125,0.515625 0.28125,0.484375 0.46875,1.046875 0.46875,1.453125 0,0.703125 -0.6875,1.265625 -1.53125,1.265625 l -0.078125,0 c -1.1875,0 -1.90625,-0.828125 -2.78125,-3.234375 z m 0,0"
           style="stroke:none"
           inkscape:connector-curvature="0" />
      </symbol>
      <symbol
         id="glyph3-8"
         overflow="visible"
         style="overflow:visible">
        <path
           id="path9203"
           d="m -12.40625,-0.375 0,-0.125 c -0.03125,-0.21875 -0.04687,-0.453125 -0.04687,-0.609375 0,-0.640625 0.28125,-0.84375 1.21875,-0.84375 l 9.5,0 c 1.078125,0 1.34375,0.28125 1.4375,1.53125 l 0.296875,0 0,-4.703125 -0.296875,0 c -0.078125,1.265625 -0.28125,1.5 -1.375,1.5 l -11.890625,0 -0.04687,0.078125 c 0.34375,1.03125 0.546875,1.796875 0.875,3.171875 z m 0,0"
           style="stroke:none"
           inkscape:connector-curvature="0" />
      </symbol>
      <symbol
         id="glyph4-0"
         overflow="visible"
         style="overflow:visible">
        <path
           id="path9206"
           d=""
           style="stroke:none"
           inkscape:connector-curvature="0" />
      </symbol>
      <symbol
         id="glyph4-1"
         overflow="visible"
         style="overflow:visible">
        <path
           id="path9209"
           d="m 5.078125,4.984375 0,-0.796875 -1.9375,0 0,-18.328125 1.9375,0 0,-0.796875 -2.734375,0 0,19.921875 z m 0,0"
           style="stroke:none"
           inkscape:connector-curvature="0" />
      </symbol>
      <symbol
         id="glyph4-2"
         overflow="visible"
         style="overflow:visible">
        <path
           id="path9212"
           d="m 3.171875,-14.9375 -2.734375,0 0,0.796875 1.9375,0 0,18.328125 -1.9375,0 0,0.796875 2.734375,0 z m 0,0"
           style="stroke:none"
           inkscape:connector-curvature="0" />
      </symbol>
      <symbol
         id="glyph5-0"
         overflow="visible"
         style="overflow:visible">
        <path
           id="path9215"
           d=""
           style="stroke:none"
           inkscape:connector-curvature="0" />
      </symbol>
      <symbol
         id="glyph5-1"
         overflow="visible"
         style="overflow:visible">
        <path
           id="path9218"
           d="m 6.03125,-3.390625 4.109375,0 c 0.21875,0 0.5,0 0.5,-0.296875 0,-0.296875 -0.28125,-0.296875 -0.5,-0.296875 l -4.109375,0 0,-4.125 c 0,-0.203125 0,-0.484375 -0.296875,-0.484375 -0.296875,0 -0.296875,0.28125 -0.296875,0.484375 l 0,4.125 -4.125,0 c -0.203125,0 -0.484375,0 -0.484375,0.296875 0,0.296875 0.28125,0.296875 0.484375,0.296875 l 4.125,0 0,4.125 c 0,0.203125 0,0.484375 0.296875,0.484375 0.296875,0 0.296875,-0.28125 0.296875,-0.484375 z m 0,0"
           style="stroke:none"
           inkscape:connector-curvature="0" />
      </symbol>
      <symbol
         id="glyph6-0"
         overflow="visible"
         style="overflow:visible">
        <path
           id="path9221"
           d=""
           style="stroke:none"
           inkscape:connector-curvature="0" />
      </symbol>
      <symbol
         id="glyph6-1"
         overflow="visible"
         style="overflow:visible">
        <path
           id="path9224"
           d="m 3.75,-9.96875 c -0.8125,0 -1.4375,0.25 -1.984375,0.765625 -0.84375,0.828125 -1.40625,2.515625 -1.40625,4.25 0,1.609375 0.484375,3.328125 1.171875,4.15625 0.546875,0.65625 1.296875,1 2.15625,1 0.75,0 1.390625,-0.25 1.921875,-0.765625 0.84375,-0.8125 1.40625,-2.515625 1.40625,-4.3125 0,-3.015625 -1.34375,-5.09375 -3.265625,-5.09375 z m -0.046875,0.375 c 1.234375,0 1.90625,1.671875 1.90625,4.75 0,3.09375 -0.65625,4.671875 -1.921875,4.671875 -1.265625,0 -1.921875,-1.578125 -1.921875,-4.65625 0,-3.125 0.671875,-4.765625 1.9375,-4.765625 z m 0,0"
           style="stroke:none"
           inkscape:connector-curvature="0" />
      </symbol>
      <symbol
         id="glyph6-2"
         overflow="visible"
         style="overflow:visible">
        <path
           id="path9227"
           d="m 4.296875,-9.96875 -2.65625,1.34375 0,0.203125 C 1.8125,-8.5 1.96875,-8.5625 2.03125,-8.578125 2.296875,-8.6875 2.546875,-8.75 2.703125,-8.75 c 0.3125,0 0.4375,0.21875 0.4375,0.703125 l 0,6.671875 c 0,0.484375 -0.109375,0.828125 -0.359375,0.96875 -0.21875,0.125 -0.421875,0.171875 -1.046875,0.1875 l 0,0.21875 4.078125,0 0,-0.21875 C 4.640625,-0.234375 4.40625,-0.390625 4.40625,-1.09375 l 0,-8.84375 z m 0,0"
           style="stroke:none"
           inkscape:connector-curvature="0" />
      </symbol>
      <symbol
         id="glyph6-3"
         overflow="visible"
         style="overflow:visible">
        <path
           id="path9230"
           d="M 7,-2.015625 6.8125,-2.09375 C 6.265625,-1.25 6.078125,-1.125 5.40625,-1.125 l -3.515625,0 2.46875,-2.59375 C 5.671875,-5.09375 6.25,-6.203125 6.25,-7.359375 c 0,-1.46875 -1.1875,-2.609375 -2.71875,-2.609375 -0.8125,0 -1.578125,0.328125 -2.125,0.90625 -0.484375,0.5 -0.703125,0.984375 -0.953125,2.03125 l 0.3125,0.0625 c 0.59375,-1.4375 1.125,-1.90625 2.140625,-1.90625 1.234375,0 2.078125,0.84375 2.078125,2.078125 0,1.140625 -0.671875,2.515625 -1.921875,3.828125 l -2.625,2.796875 0,0.171875 5.75,0 z m 0,0"
           style="stroke:none"
           inkscape:connector-curvature="0" />
      </symbol>
      <symbol
         id="glyph6-4"
         overflow="visible"
         style="overflow:visible">
        <path
           id="path9233"
           d="m 2.25,-4.875 c 0.875,0 1.21875,0.03125 1.5625,0.171875 0.921875,0.328125 1.5,1.15625 1.5,2.1875 0,1.234375 -0.84375,2.1875 -1.9375,2.1875 -0.390625,0 -0.6875,-0.09375 -1.234375,-0.453125 -0.4375,-0.265625 -0.6875,-0.375 -0.953125,-0.375 -0.328125,0 -0.546875,0.21875 -0.546875,0.515625 0,0.515625 0.625,0.84375 1.65625,0.84375 1.140625,0 2.3125,-0.375 3,-0.984375 0.6875,-0.609375 1.078125,-1.453125 1.078125,-2.453125 0,-0.75 -0.234375,-1.4375 -0.671875,-1.90625 -0.296875,-0.3125 -0.5625,-0.5 -1.21875,-0.78125 C 5.5,-6.609375 5.875,-7.15625 5.875,-7.953125 c 0,-1.1875 -0.953125,-2.015625 -2.3125,-2.015625 -0.734375,0 -1.375,0.25 -1.90625,0.71875 -0.453125,0.40625 -0.671875,0.78125 -1,1.671875 l 0.234375,0.0625 c 0.59375,-1.078125 1.265625,-1.578125 2.1875,-1.578125 0.96875,0 1.625,0.65625 1.625,1.59375 0,0.515625 -0.21875,1.046875 -0.59375,1.421875 -0.4375,0.4375 -0.84375,0.671875 -1.859375,1.015625 z m 0,0"
           style="stroke:none"
           inkscape:connector-curvature="0" />
      </symbol>
      <symbol
         id="glyph6-5"
         overflow="visible"
         style="overflow:visible">
        <path
           id="path9236"
           d="m 6.96875,-3.40625 -1.515625,0 0,-6.5625 -0.640625,0 -4.640625,6.5625 0,0.9375 4.15625,0 0,2.46875 1.125,0 0,-2.46875 1.515625,0 z m -2.65625,0 -3.546875,0 3.546875,-5.0625 z m 0,0"
           style="stroke:none"
           inkscape:connector-curvature="0" />
      </symbol>
      <symbol
         id="glyph6-6"
         overflow="visible"
         style="overflow:visible">
        <path
           id="path9239"
           d="m 2.671875,-8.59375 2.890625,0 c 0.234375,0 0.296875,-0.03125 0.34375,-0.140625 l 0.546875,-1.3125 -0.125,-0.09375 c -0.21875,0.296875 -0.375,0.375 -0.671875,0.375 l -3.09375,0 -1.609375,3.5 C 0.9375,-6.234375 0.9375,-6.21875 0.9375,-6.1875 c 0,0.0625 0.0625,0.109375 0.1875,0.109375 0.46875,0 1.0625,0.109375 1.65625,0.296875 1.703125,0.546875 2.484375,1.453125 2.484375,2.921875 0,1.40625 -0.90625,2.515625 -2.046875,2.515625 -0.296875,0 -0.546875,-0.09375 -0.984375,-0.421875 C 1.75,-1.109375 1.421875,-1.25 1.109375,-1.25 c -0.4375,0 -0.640625,0.171875 -0.640625,0.546875 0,0.5625 0.703125,0.90625 1.796875,0.90625 1.25,0 2.3125,-0.390625 3.046875,-1.140625 0.671875,-0.671875 0.984375,-1.515625 0.984375,-2.625 0,-1.0625 -0.28125,-1.75 -1.015625,-2.484375 C 4.625,-6.703125 3.796875,-7.03125 2.046875,-7.34375 Z m 0,0"
           style="stroke:none"
           inkscape:connector-curvature="0" />
      </symbol>
    </g>
    <clipPath
       id="clip1">
      <path
         id="path9242"
         d="m 193,34.558594 3,0 0,345.601566 -3,0 z m 0,0"
         inkscape:connector-curvature="0" />
    </clipPath>
    <clipPath
       id="clip2">
      <path
         id="path9245"
         d="m 237,34.558594 3,0 0,345.601566 -3,0 z m 0,0"
         inkscape:connector-curvature="0" />
    </clipPath>
    <clipPath
       id="clip3">
      <path
         id="path9248"
         d="m 285,34.558594 3,0 0,345.601566 -3,0 z m 0,0"
         inkscape:connector-curvature="0" />
    </clipPath>
    <clipPath
       id="clip4">
      <path
         id="path9251"
         d="m 334,34.558594 3,0 0,345.601566 -3,0 z m 0,0"
         inkscape:connector-curvature="0" />
    </clipPath>
    <clipPath
       id="clip5">
      <path
         id="path9254"
         d="m 382,34.558594 3,0 0,345.601566 -3,0 z m 0,0"
         inkscape:connector-curvature="0" />
    </clipPath>
    <clipPath
       id="clip6">
      <path
         id="path9257"
         d="m 431,34.558594 2,0 0,345.601566 -2,0 z m 0,0"
         inkscape:connector-curvature="0" />
    </clipPath>
    <clipPath
       id="clip7">
      <path
         id="path9260"
         d="m 109,34.558594 404,0 0,345.601566 -404,0 z m 0,0"
         inkscape:connector-curvature="0" />
    </clipPath>
    <clipPath
       id="clip6-3">
      <path
         id="path9257-6"
         d="m 431,34.558594 h 2 V 380.16016 h -2 z m 0,0"
         inkscape:connector-curvature="0" />
    </clipPath>
    <clipPath
       id="clip6-3-3">
      <path
         id="path9257-6-5"
         d="m 431,34.558594 h 2 V 380.16016 h -2 z m 0,0"
         inkscape:connector-curvature="0" />
    </clipPath>
    <clipPath
       id="clip6-9">
      <path
         id="path9257-1"
         d="m 431,34.558594 h 2 V 380.16016 h -2 z m 0,0"
         inkscape:connector-curvature="0" />
    </clipPath>
    <clipPath
       id="clip7-6">
      <path
         id="path9260-0"
         d="M 109,34.558594 H 513 V 380.16016 H 109 Z m 0,0"
         inkscape:connector-curvature="0" />
    </clipPath>
    <radialGradient
       inkscape:collect="always"
       xlink:href="#linearGradient4729"
       id="radialGradient4737"
       cx="206.82927"
       cy="651.96149"
       fx="206.82928"
       fy="651.96143"
       r="42.642857"
       gradientUnits="userSpaceOnUse"
       gradientTransform="matrix(0.80048497,0.56077278,-0.68668056,0.98021429,470.74351,-148.60765)" />
    <linearGradient
       inkscape:collect="always"
       id="linearGradient4729">
      <stop
         style="stop-color:#4d4d4d;stop-opacity:1;"
         offset="0"
         id="stop4731" />
      <stop
         style="stop-color:#cccccc;stop-opacity:1"
         offset="1"
         id="stop4733" />
    </linearGradient>
    <radialGradient
       inkscape:collect="always"
       xlink:href="#linearGradient4759"
       id="radialGradient4765"
       cx="95.274857"
       cy="580.96338"
       fx="95.274857"
       fy="580.96338"
       r="42.142857"
       gradientUnits="userSpaceOnUse"
       gradientTransform="matrix(0.58594258,-0.25855917,0.44519374,1.0088908,-111.0339,66.006682)" />
    <linearGradient
       inkscape:collect="always"
       id="linearGradient4759">
      <stop
         style="stop-color:#d5d5ff;stop-opacity:1;"
         offset="0"
         id="stop4761" />
      <stop
         style="stop-color:#d5d5ff;stop-opacity:0;"
         offset="1"
         id="stop4763" />
    </linearGradient>
    <marker
       inkscape:isstock="true"
       style="overflow:visible"
       id="marker10841-6"
       refX="0"
       refY="0"
       orient="auto"
       inkscape:stockid="Arrow2Mend">
      <path
         inkscape:connector-curvature="0"
         transform="scale(-0.6)"
         d="M 8.7185878,4.0337352 -2.2072895,0.01601326 8.7185884,-4.0017078 c -1.7454984,2.3720609 -1.7354408,5.6174519 -6e-7,8.035443 z"
         style="fill:#ff6600;fill-opacity:1;fill-rule:evenodd;stroke:#ff6600;stroke-width:0.625;stroke-linejoin:round;stroke-opacity:1"
         id="path10843-2" />
    </marker>
    <marker
       inkscape:stockid="Arrow2Mend"
       orient="auto"
       refY="0"
       refX="0"
       id="Arrow2Mend"
       style="overflow:visible"
       inkscape:isstock="true"
       inkscape:collect="always">
      <path
         id="path4953"
         style="fill:#1a1a1a;fill-opacity:1;fill-rule:evenodd;stroke:#1a1a1a;stroke-width:0.625;stroke-linejoin:round;stroke-opacity:1"
         d="M 8.7185878,4.0337352 -2.2072895,0.01601326 8.7185884,-4.0017078 c -1.7454984,2.3720609 -1.7354408,5.6174519 -6e-7,8.035443 z"
         transform="scale(-0.6)"
         inkscape:connector-curvature="0" />
    </marker>
    <clipPath
       id="clip6-6">
      <path
         id="path9257-18"
         d="m 431,34.558594 h 2 V 380.16016 h -2 z m 0,0"
         inkscape:connector-curvature="0" />
    </clipPath>
    <clipPath
       id="clip4-7">
      <path
         id="path9251-9"
         d="m 334,34.558594 h 3 V 380.16016 h -3 z m 0,0"
         inkscape:connector-curvature="0" />
    </clipPath>
    <clipPath
       id="clip3-2">
      <path
         id="path9248-0"
         d="m 285,34.558594 h 3 V 380.16016 h -3 z m 0,0"
         inkscape:connector-curvature="0" />
    </clipPath>
    <clipPath
       id="clip2-2">
      <path
         id="path9245-3"
         d="m 237,34.558594 h 3 V 380.16016 h -3 z m 0,0"
         inkscape:connector-curvature="0" />
    </clipPath>
    <clipPath
       id="clip3-2-7">
      <path
         id="path9248-0-5"
         d="m 285,34.558594 h 3 V 380.16016 h -3 z m 0,0"
         inkscape:connector-curvature="0" />
    </clipPath>
  </defs>
  <sodipodi:namedview
     id="base"
     pagecolor="#ffffff"
     bordercolor="#666666"
     borderopacity="1.0"
     inkscape:pageopacity="0.0"
     inkscape:pageshadow="2"
     inkscape:zoom="0.9899495"
     inkscape:cx="485.79538"
     inkscape:cy="429.44659"
     inkscape:document-units="px"
     inkscape:current-layer="layer1"
     showgrid="false"
     inkscape:window-width="2560"
     inkscape:window-height="1403"
     inkscape:window-x="1920"
     inkscape:window-y="0"
     inkscape:window-maximized="1" />
  <metadata
     id="metadata8544">
    <rdf:RDF>
      <cc:Work
         rdf:about="">
        <dc:format>image/svg+xml</dc:format>
        <dc:type
           rdf:resource="http://purl.org/dc/dcmitype/StillImage" />
        <dc:title />
      </cc:Work>
    </rdf:RDF>
  </metadata>
  <g
     inkscape:label="Layer 1"
     inkscape:groupmode="layer"
     id="layer1"
     transform="translate(0,-485.43307)">
    <rect
       x="12.178028"
       y="501.0979"
       width="720"
       height="540"
       style="fill:#ffffff;fill-opacity:1;stroke:none;stroke-width:1"
       id="rect9263" />
    <g
       style="clip-rule:nonzero"
       clip-path="url(#clip2-2)"
       id="g9271"
       transform="matrix(1.25,0,0,1.236299,9.3079801,500.11791)">
      <path
         inkscape:connector-curvature="0"
         style="fill:none;stroke:#232323;stroke-width:2;stroke-linecap:butt;stroke-linejoin:round;stroke-miterlimit:10;stroke-dasharray:6, 6;stroke-opacity:0.8"
         d="M 238.46484,51.839844 V 397.44141"
         transform="matrix(1,0,0,-1,0,432)"
         id="path9273" />
    </g>
    <g
       style="clip-rule:nonzero"
       clip-path="url(#clip3-2)"
       id="g9275"
       transform="matrix(1.25,0,0,1.25,-81.025704,496.78433)">
      <path
         inkscape:connector-curvature="0"
         style="fill:none;stroke:#232323;stroke-width:2;stroke-linecap:butt;stroke-linejoin:round;stroke-miterlimit:10;stroke-dasharray:6, 6;stroke-opacity:0.8"
         d="M 286.84766,51.839844 V 397.44141"
         transform="matrix(1,0,0,-1,0,432)"
         id="path9277" />
    </g>
    <g
       style="clip-rule:nonzero"
       clip-path="url(#clip4-7)"
       id="g9279"
       transform="matrix(1.25,0,0,1.2472598,-81.793934,497.82605)">
      <path
         inkscape:connector-curvature="0"
         style="fill:none;stroke:#232323;stroke-width:2;stroke-linecap:butt;stroke-linejoin:round;stroke-miterlimit:10;stroke-dasharray:6, 6;stroke-opacity:0.8"
         d="M 335.23047,51.839844 V 397.44141"
         transform="matrix(1,0,0,-1,0,432)"
         id="path9281" />
    </g>
    <g
       style="clip-rule:nonzero"
       clip-path="url(#clip6-6)"
       id="g9287"
       transform="matrix(1.44042,0,0,1.2335588,-255.16214,501.15963)">
      <path
         inkscape:connector-curvature="0"
         style="fill:none;stroke:#232323;stroke-width:2;stroke-linecap:butt;stroke-linejoin:round;stroke-miterlimit:10;stroke-dasharray:6, 6;stroke-opacity:0.8"
         d="M 432,378.64016 V 33.038598"
         id="path9289" />
    </g>
    <path
       style="fill:none;fill-rule:evenodd;stroke:#1a1a1a;stroke-width:3;stroke-linecap:butt;stroke-linejoin:miter;stroke-miterlimit:4;stroke-dasharray:none;stroke-opacity:1;marker-end:url(#Arrow2Mend)"
       d="m 245.72123,930.89861 c 0,0 9.78072,-9.91861 13.68077,-15.64378 5.81017,-8.52918 9.7772,-18.18646 14.22682,-27.49806 3.19236,-6.68057 3.07838,-15.80827 8.93759,-20.33496 9.28697,-7.17489 29.78112,5.05481 34.76361,-5.57071 4.48663,-9.56808 -18.91111,-17.07006 -16.16244,-27.27412 3.41112,-12.66332 22.19771,-14.24978 34.34518,-19.19289 25.76078,-10.48271 53.19229,-26.67124 80.55966,-21.71829 8.25226,1.4935 14.49207,8.7509 20.45559,14.64722 4.45385,4.40366 7.35225,10.14272 11.11168,15.15228 14.26979,19.01491 32.61626,35.39985 43.43656,56.56855 13.80761,27.01302 63.73242,69.82307 63.73242,69.82307"
       id="path4920"
       inkscape:connector-curvature="0"
       sodipodi:nodetypes="caaaaaaaaasc" />
    <path
       sodipodi:nodetypes="caaaaaaaaaac"
       inkscape:connector-curvature="0"
       id="path10839"
       d="m 244.24714,932.15387 c 0,0 9.77285,-19.81807 14.2165,-29.9295 2.53168,-5.76079 4.63707,-11.70075 7.08396,-17.49806 2.87914,-6.82142 7.1976,-13.13817 8.93759,-20.33496 4.48014,-18.53029 -7.14962,-41.24188 3.44888,-57.08849 7.28375,-10.89047 23.7915,-11.01363 35.35534,-17.17259 14.7822,-7.87308 29.89444,-15.39937 43.43655,-25.25381 11.61609,-8.45289 34.58069,-14.64394 32.07235,-28.78936 -2.45367,-13.83705 -25.26097,-17.83953 -39.14342,-15.65735 -35.4344,5.56993 -65.36722,37.36011 -82.83251,68.69036 -14.23645,25.53818 -2.58231,59.23487 -12.12183,86.87313 -3.93814,11.40975 -18.18274,31.31472 -18.18274,31.31472"
       style="fill:none;fill-rule:evenodd;stroke:#ff6600;stroke-width:3;stroke-linecap:butt;stroke-linejoin:miter;stroke-miterlimit:4;stroke-dasharray:none;stroke-opacity:1;marker-end:url(#marker10841-6)" />
    <g
       id="g4915"
       transform="matrix(0.73535731,0,0,0.73535731,102.25104,495.62754)">
      <circle
         r="26.99057"
         cy="616.50281"
         cx="195.02254"
         id="path4707"
         style="opacity:0.98999999;fill:#3737c8;fill-opacity:1;stroke:none;stroke-width:1;stroke-linecap:round;stroke-miterlimit:4;stroke-dasharray:none;stroke-dashoffset:0;stroke-opacity:1" />
      <circle
         style="opacity:0.569;fill:url(#radialGradient4737);fill-opacity:1;stroke:none;stroke-width:1;stroke-linecap:round;stroke-miterlimit:4;stroke-dasharray:none;stroke-dashoffset:0;stroke-opacity:1"
         id="circle4709"
         cx="195.02254"
         cy="616.50281"
         r="26.99057" />
      <circle
         style="opacity:0.98999999;fill:url(#radialGradient4765);fill-opacity:1;stroke:none;stroke-width:1;stroke-linecap:round;stroke-miterlimit:4;stroke-dasharray:none;stroke-dashoffset:0;stroke-opacity:1"
         id="circle4739"
         cx="195.02254"
         cy="616.50281"
         r="26.99057" />
    </g>
    <g
       style="clip-rule:nonzero"
       clip-path="url(#clip7-6)"
       id="g9291"
       transform="matrix(1.25,0,0,1.25,7.0992982,496.78433)">
      <path
         inkscape:connector-curvature="0"
         style="fill:none;stroke:#4a70b0;stroke-width:6;stroke-linecap:square;stroke-linejoin:round;stroke-miterlimit:10;stroke-opacity:0.9"
         d="m 113.75,433 0.3125,-3.94531 2.89844,-34.5625 2.89844,-32.42188 2.89843,-30.35937 2.90235,-28.3711 2.89843,-26.44531 2.89844,-24.59766 2.89844,-22.8164 2.89844,-21.09766 2.90234,-19.44922 2.89844,-17.86328 2.89843,-16.34375 2.89844,-14.88672 2.89844,-13.49218 2.89844,-12.15235 2.90234,-10.88281 2.89844,-9.664062 2.89844,-8.503907 2.89843,-7.398437 2.89844,-6.355469 2.90234,-5.355469 2.89844,-4.417968 2.89844,-3.53125 2.89844,-2.691407 2.89843,-1.902343 2.89844,-1.164063 2.90235,-0.472656 2.89843,0.175781 2.89844,0.773438 2.89844,1.328124 2.89844,1.84375 2.90234,2.3125 2.89844,2.742188 2.89843,3.132812 2.89844,3.480469 2.89844,3.796875 2.90234,4.074219 2.89844,4.3125 5.79688,9.214844 5.79687,9.78125 11.59766,20.292971 8.69922,15.00781 5.79687,9.54687 5.79688,8.98438 5.80078,8.26953 2.89843,3.82813 2.89844,3.59765 2.89844,3.36328 2.90234,3.10938 2.89844,2.84375 2.89844,2.57422 2.89844,2.28906 2.89843,1.99609 2.90235,1.69922 2.89843,1.39453 2.89844,1.08594 2.89844,0.77344 2.89844,0.45703 2.89843,0.14062 2.90235,-0.17578 2.89844,-0.49218 2.89843,-0.8086 2.89844,-1.125 2.89844,-1.42969 2.90234,-1.73046 2.89844,-2.03125 2.89844,-2.32422 2.89843,-2.60157 2.89844,-2.875 2.89844,-3.14062 2.90234,-3.38672 2.89844,-3.62891 2.89844,-3.85156 2.89844,-4.05859 5.80078,-8.6836 5.79687,-9.3164 5.79688,-9.79297 11.59765,-20.28125 8.69922,-15.019531 5.79688,-9.496094 2.89843,-4.5 2.89844,-4.289063 2.90235,-4.042968 2.89843,-3.761719 2.89844,-3.445313 2.89844,-3.089843 2.89844,-2.695313 2.89843,-2.261718 2.90235,-1.785157 2.89843,-1.269531 2.89844,-0.710938 2.89844,-0.101562 2.89844,0.550781 2.90234,1.242188 2.89844,1.992187 2.89844,2.785156 2.89843,3.625 2.89844,4.523438 2.90234,5.46875 2.89844,6.46875 2.89844,7.523438 2.89844,8.632812 2.89843,9.80078 2.89844,11.02344 2.90235,12.30469 2.89843,13.64453 2.89844,15.05078 2.89844,16.51172 2.89844,18.04297 2.90234,19.63281 2.89844,21.28906 2.89843,23.01172 2.89844,24.80469 2.89844,26.66406 2.89844,28.59375 2.90234,30.58984 2.89844,32.66407 L 508.33594,433"
         transform="matrix(1,0,0,-1,0,432)"
         id="path9293" />
    </g>
    <path
       inkscape:connector-curvature="0"
       style="fill:none;stroke:#232323;stroke-width:1.25;stroke-linecap:square;stroke-linejoin:miter;stroke-miterlimit:10;stroke-opacity:1"
       d="M 93.50067,971.98452 H 698.30048"
       id="path9295" />
    <path
       inkscape:connector-curvature="0"
       style="fill:none;stroke:#232323;stroke-width:1.25;stroke-linecap:square;stroke-linejoin:miter;stroke-miterlimit:10;stroke-opacity:1"
       d="M 93.50067,539.98257 H 698.30048"
       id="path9297" />
    <path
       inkscape:connector-curvature="0"
       style="fill:none;stroke:#232323;stroke-width:1.25;stroke-linecap:square;stroke-linejoin:miter;stroke-miterlimit:10;stroke-opacity:1"
       d="M 93.50067,971.98452 V 539.98257"
       id="path9299" />
    <path
       inkscape:connector-curvature="0"
       style="fill:none;stroke:#232323;stroke-width:1.25;stroke-linecap:square;stroke-linejoin:miter;stroke-miterlimit:10;stroke-opacity:1"
       d="M 698.30048,971.98452 V 539.98257"
       id="path9301" />
    <path
       inkscape:connector-curvature="0"
       style="fill:none;stroke:#232323;stroke-width:0.625;stroke-linecap:butt;stroke-linejoin:round;stroke-miterlimit:10;stroke-opacity:1"
       d="m 123.73993,971.98452 v -5"
       id="path9303" />
    <path
       inkscape:connector-curvature="0"
       style="fill:none;stroke:#232323;stroke-width:0.625;stroke-linecap:butt;stroke-linejoin:round;stroke-miterlimit:10;stroke-opacity:1"
       d="m 123.73993,539.98257 v 5"
       id="path9305" />
    <g
       style="fill:#232323;fill-opacity:1"
       id="g9307"
       transform="matrix(1.25,0,0,1.25,7.0992982,496.78433)">
      <use
         height="100%"
         width="100%"
         xlink:href="#glyph0-1"
         x="80.589813"
         y="399.66916"
         id="use9309" />
    </g>
    <g
       style="fill:#232323;fill-opacity:1"
       id="g9311"
       transform="matrix(1.25,0,0,1.25,7.0992982,496.78433)">
      <use
         height="100%"
         width="100%"
         xlink:href="#glyph1-1"
         x="90.552452"
         y="399.66916"
         id="use9313" />
    </g>
    <g
       style="fill:#232323;fill-opacity:1"
       id="g9315"
       transform="matrix(1.25,0,0,1.25,7.0992982,496.78433)">
      <use
         height="100%"
         width="100%"
         xlink:href="#glyph0-2"
         x="96.071548"
         y="399.66916"
         id="use9317" />
    </g>
    <path
       inkscape:connector-curvature="0"
       style="fill:none;stroke:#232323;stroke-width:0.625;stroke-linecap:butt;stroke-linejoin:round;stroke-miterlimit:10;stroke-opacity:1"
       d="m 244.69695,971.98452 v -5"
       id="path9319" />
    <path
       inkscape:connector-curvature="0"
       style="fill:none;stroke:#232323;stroke-width:0.625;stroke-linecap:butt;stroke-linejoin:round;stroke-miterlimit:10;stroke-opacity:1"
       d="m 244.69695,539.98257 v 5"
       id="path9321" />
    <g
       style="fill:#232323;fill-opacity:1"
       id="g9323"
       transform="matrix(1.25,0,0,1.25,7.0992982,496.78433)">
      <use
         height="100%"
         width="100%"
         xlink:href="#glyph0-3"
         x="177.35782"
         y="399.66916"
         id="use9325" />
    </g>
    <g
       style="fill:#232323;fill-opacity:1"
       id="g9327"
       transform="matrix(1.25,0,0,1.25,7.0992982,496.78433)">
      <use
         height="100%"
         width="100%"
         xlink:href="#glyph1-1"
         x="187.32045"
         y="399.66916"
         id="use9329" />
    </g>
    <g
       style="fill:#232323;fill-opacity:1"
       id="g9331"
       transform="matrix(1.25,0,0,1.25,7.0992982,496.78433)">
      <use
         height="100%"
         width="100%"
         xlink:href="#glyph0-1"
         x="192.83955"
         y="399.66916"
         id="use9333" />
    </g>
    <path
       inkscape:connector-curvature="0"
       style="fill:none;stroke:#232323;stroke-width:0.625;stroke-linecap:butt;stroke-linejoin:round;stroke-miterlimit:10;stroke-opacity:1"
       d="m 365.65888,971.98452 v -5"
       id="path9335" />
    <g
       style="fill:#232323;fill-opacity:1"
       id="g9339"
       transform="matrix(1.25,0,0,1.25,7.0992982,496.78433)">
      <use
         height="100%"
         width="100%"
         xlink:href="#glyph0-3"
         x="274.12582"
         y="399.66916"
         id="use9341" />
    </g>
    <g
       style="fill:#232323;fill-opacity:1"
       id="g9343"
       transform="matrix(1.25,0,0,1.25,7.0992982,496.78433)">
      <use
         height="100%"
         width="100%"
         xlink:href="#glyph1-1"
         x="284.08844"
         y="399.66916"
         id="use9345" />
    </g>
    <g
       style="fill:#232323;fill-opacity:1"
       id="g9347"
       transform="matrix(1.25,0,0,1.25,7.0992982,496.78433)">
      <use
         height="100%"
         width="100%"
         xlink:href="#glyph0-4"
         x="289.60754"
         y="399.66916"
         id="use9349" />
    </g>
    <path
       inkscape:connector-curvature="0"
       style="fill:none;stroke:#232323;stroke-width:0.625;stroke-linecap:butt;stroke-linejoin:round;stroke-miterlimit:10;stroke-opacity:1"
       d="m 486.62079,971.98452 v -5"
       id="path9351" />
    <path
       inkscape:connector-curvature="0"
       style="fill:none;stroke:#232323;stroke-width:0.625;stroke-linecap:butt;stroke-linejoin:round;stroke-miterlimit:10;stroke-opacity:1"
       d="m 486.62079,539.98257 v 5"
       id="path9353" />
    <g
       style="fill:#232323;fill-opacity:1"
       id="g9355"
       transform="matrix(1.25,0,0,1.25,7.0992982,496.78433)">
      <use
         height="100%"
         width="100%"
         xlink:href="#glyph0-3"
         x="370.8938"
         y="399.66916"
         id="use9357" />
    </g>
    <g
       style="fill:#232323;fill-opacity:1"
       id="g9359"
       transform="matrix(1.25,0,0,1.25,7.0992982,496.78433)">
      <use
         height="100%"
         width="100%"
         xlink:href="#glyph1-1"
         x="380.85645"
         y="399.66916"
         id="use9361" />
    </g>
    <g
       style="fill:#232323;fill-opacity:1"
       id="g9363"
       transform="matrix(1.25,0,0,1.25,7.0992982,496.78433)">
      <use
         height="100%"
         width="100%"
         xlink:href="#glyph0-5"
         x="386.37555"
         y="399.66916"
         id="use9365" />
    </g>
    <path
       inkscape:connector-curvature="0"
       style="fill:none;stroke:#232323;stroke-width:0.625;stroke-linecap:butt;stroke-linejoin:round;stroke-miterlimit:10;stroke-opacity:1"
       d="m 607.57782,971.98452 v -5"
       id="path9367" />
    <path
       inkscape:connector-curvature="0"
       style="fill:none;stroke:#232323;stroke-width:0.625;stroke-linecap:butt;stroke-linejoin:round;stroke-miterlimit:10;stroke-opacity:1"
       d="m 607.57782,539.98257 v 5"
       id="path9369" />
    <g
       style="fill:#232323;fill-opacity:1"
       id="g9371"
       transform="matrix(1.25,0,0,1.25,7.0992982,496.78433)">
      <use
         height="100%"
         width="100%"
         xlink:href="#glyph0-3"
         x="467.6618"
         y="399.66916"
         id="use9373" />
    </g>
    <g
       style="fill:#232323;fill-opacity:1"
       id="g9375"
       transform="matrix(1.25,0,0,1.25,7.0992982,496.78433)">
      <use
         height="100%"
         width="100%"
         xlink:href="#glyph1-1"
         x="477.62445"
         y="399.66916"
         id="use9377" />
    </g>
    <g
       style="fill:#232323;fill-opacity:1"
       id="g9379"
       transform="matrix(1.25,0,0,1.25,7.0992982,496.78433)">
      <use
         height="100%"
         width="100%"
         xlink:href="#glyph0-6"
         x="483.14355"
         y="399.66916"
         id="use9381" />
    </g>
    <g
       style="fill:#232323;fill-opacity:1"
       id="g9383"
       transform="matrix(1.25,0,0,1.25,7.0992982,496.78433)">
      <use
         height="100%"
         width="100%"
         xlink:href="#glyph0-7"
         x="229.66592"
         y="423.40857"
         id="use9385" />
      <use
         height="100%"
         width="100%"
         xlink:href="#glyph0-8"
         x="244.03206"
         y="423.40857"
         id="use9387" />
      <use
         height="100%"
         width="100%"
         xlink:href="#glyph0-9"
         x="250.64725"
         y="423.40857"
         id="use9389" />
      <use
         height="100%"
         width="100%"
         xlink:href="#glyph0-10"
         x="260.60989"
         y="423.40857"
         id="use9391" />
      <use
         height="100%"
         width="100%"
         xlink:href="#glyph0-8"
         x="269.4368"
         y="423.40857"
         id="use9393" />
    </g>
    <g
       style="fill:#232323;fill-opacity:1"
       id="g9395"
       transform="matrix(1.25,0,0,1.25,7.0992982,496.78433)">
      <use
         height="100%"
         width="100%"
         xlink:href="#glyph0-11"
         x="281.03329"
         y="423.40857"
         id="use9397" />
      <use
         height="100%"
         width="100%"
         xlink:href="#glyph0-12"
         x="290.99594"
         y="423.40857"
         id="use9399" />
      <use
         height="100%"
         width="100%"
         xlink:href="#glyph0-8"
         x="299.82285"
         y="423.40857"
         id="use9401" />
      <use
         height="100%"
         width="100%"
         xlink:href="#glyph0-12"
         x="306.43805"
         y="423.40857"
         id="use9403" />
      <use
         height="100%"
         width="100%"
         xlink:href="#glyph0-13"
         x="315.26492"
         y="423.40857"
         id="use9405" />
      <use
         height="100%"
         width="100%"
         xlink:href="#glyph0-10"
         x="330.74689"
         y="423.40857"
         id="use9407" />
      <use
         height="100%"
         width="100%"
         xlink:href="#glyph0-14"
         x="339.57376"
         y="423.40857"
         id="use9409" />
      <use
         height="100%"
         width="100%"
         xlink:href="#glyph0-10"
         x="345.09308"
         y="423.40857"
         id="use9411" />
      <use
         height="100%"
         width="100%"
         xlink:href="#glyph0-8"
         x="353.91998"
         y="423.40857"
         id="use9413" />
    </g>
    <g
       style="fill:#232323;fill-opacity:1"
       id="g9415"
       transform="matrix(1.25,0,0,1.25,7.0992982,496.78433)">
      <use
         height="100%"
         width="100%"
         xlink:href="#glyph0-15"
         x="365.51648"
         y="423.40857"
         id="use9417" />
    </g>
    <g
       style="fill:#232323;fill-opacity:1"
       id="g9419"
       transform="matrix(1.25,0,0,1.25,7.0992982,496.78433)">
      <use
         height="100%"
         width="100%"
         xlink:href="#glyph2-1"
         x="372.38931"
         y="423.40857"
         id="use9421" />
    </g>
    <g
       style="fill:#232323;fill-opacity:1"
       id="g9423"
       transform="matrix(1.25,0,0,1.25,7.0992982,496.78433)">
      <use
         height="100%"
         width="100%"
         xlink:href="#glyph0-16"
         x="385.77902"
         y="423.40857"
         id="use9425" />
    </g>
    <path
       inkscape:connector-curvature="0"
       style="fill:none;stroke:#232323;stroke-width:0.625;stroke-linecap:butt;stroke-linejoin:round;stroke-miterlimit:10;stroke-opacity:1"
       d="m 93.50067,971.98452 h 5"
       id="path9427" />
    <path
       inkscape:connector-curvature="0"
       style="fill:none;stroke:#232323;stroke-width:0.625;stroke-linecap:butt;stroke-linejoin:round;stroke-miterlimit:10;stroke-opacity:1"
       d="m 698.30048,971.98452 h -5"
       id="path9429" />
    <g
       style="fill:#232323;fill-opacity:1"
       id="g9431"
       transform="matrix(1.25,0,0,1.25,7.0992982,496.78433)">
      <use
         height="100%"
         width="100%"
         xlink:href="#glyph0-1"
         x="53.15736"
         y="384.75775"
         id="use9433" />
    </g>
    <path
       inkscape:connector-curvature="0"
       style="fill:none;stroke:#232323;stroke-width:0.625;stroke-linecap:butt;stroke-linejoin:round;stroke-miterlimit:10;stroke-opacity:1"
       d="m 93.50067,914.38199 h 5"
       id="path9435" />
    <path
       inkscape:connector-curvature="0"
       style="fill:none;stroke:#232323;stroke-width:0.625;stroke-linecap:butt;stroke-linejoin:round;stroke-miterlimit:10;stroke-opacity:1"
       d="m 698.30048,914.38199 h -5"
       id="path9437" />
    <g
       style="fill:#232323;fill-opacity:1"
       id="g9439"
       transform="matrix(1.25,0,0,1.25,7.0992982,496.78433)">
      <use
         height="100%"
         width="100%"
         xlink:href="#glyph0-4"
         x="53.15736"
         y="338.67773"
         id="use9441" />
    </g>
    <path
       inkscape:connector-curvature="0"
       style="fill:none;stroke:#232323;stroke-width:0.625;stroke-linecap:butt;stroke-linejoin:round;stroke-miterlimit:10;stroke-opacity:1"
       d="m 93.50067,856.78433 h 5"
       id="path9443" />
    <path
       inkscape:connector-curvature="0"
       style="fill:none;stroke:#232323;stroke-width:0.625;stroke-linecap:butt;stroke-linejoin:round;stroke-miterlimit:10;stroke-opacity:1"
       d="m 698.30048,856.78433 h -5"
       id="path9445" />
    <g
       style="fill:#232323;fill-opacity:1"
       id="g9447"
       transform="matrix(1.25,0,0,1.25,7.0992982,496.78433)">
      <use
         height="100%"
         width="100%"
         xlink:href="#glyph0-5"
         x="53.15736"
         y="292.59775"
         id="use9449" />
    </g>
    <path
       inkscape:connector-curvature="0"
       style="fill:none;stroke:#232323;stroke-width:0.625;stroke-linecap:butt;stroke-linejoin:round;stroke-miterlimit:10;stroke-opacity:1"
       d="m 93.50067,799.18668 h 5"
       id="path9451" />
    <path
       inkscape:connector-curvature="0"
       style="fill:none;stroke:#232323;stroke-width:0.625;stroke-linecap:butt;stroke-linejoin:round;stroke-miterlimit:10;stroke-opacity:1"
       d="m 698.30048,799.18668 h -5"
       id="path9453" />
    <g
       style="fill:#232323;fill-opacity:1"
       id="g9455"
       transform="matrix(1.25,0,0,1.25,7.0992982,496.78433)">
      <use
         height="100%"
         width="100%"
         xlink:href="#glyph0-6"
         x="53.15736"
         y="246.51775"
         id="use9457" />
    </g>
    <path
       inkscape:connector-curvature="0"
       style="fill:none;stroke:#232323;stroke-width:0.625;stroke-linecap:butt;stroke-linejoin:round;stroke-miterlimit:10;stroke-opacity:1"
       d="m 93.50067,741.58413 h 5"
       id="path9459" />
    <path
       inkscape:connector-curvature="0"
       style="fill:none;stroke:#232323;stroke-width:0.625;stroke-linecap:butt;stroke-linejoin:round;stroke-miterlimit:10;stroke-opacity:1"
       d="m 698.30048,741.58413 h -5"
       id="path9461" />
    <g
       style="fill:#232323;fill-opacity:1"
       id="g9463"
       transform="matrix(1.25,0,0,1.25,7.0992982,496.78433)">
      <use
         height="100%"
         width="100%"
         xlink:href="#glyph0-2"
         x="53.15736"
         y="200.43774"
         id="use9465" />
    </g>
    <path
       inkscape:connector-curvature="0"
       style="fill:none;stroke:#232323;stroke-width:0.625;stroke-linecap:butt;stroke-linejoin:round;stroke-miterlimit:10;stroke-opacity:1"
       d="m 93.50067,683.98648 h 5"
       id="path9467" />
    <path
       inkscape:connector-curvature="0"
       style="fill:none;stroke:#232323;stroke-width:0.625;stroke-linecap:butt;stroke-linejoin:round;stroke-miterlimit:10;stroke-opacity:1"
       d="m 698.30048,683.98648 h -5"
       id="path9469" />
    <g
       style="fill:#232323;fill-opacity:1"
       id="g9471"
       transform="matrix(1.25,0,0,1.25,7.0992982,496.78433)">
      <use
         height="100%"
         width="100%"
         xlink:href="#glyph0-3"
         x="43.194721"
         y="154.35774"
         id="use9473" />
      <use
         height="100%"
         width="100%"
         xlink:href="#glyph0-1"
         x="53.15736"
         y="154.35774"
         id="use9475" />
    </g>
    <path
       inkscape:connector-curvature="0"
       style="fill:none;stroke:#232323;stroke-width:0.625;stroke-linecap:butt;stroke-linejoin:round;stroke-miterlimit:10;stroke-opacity:1"
       d="m 93.50067,626.38394 h 5"
       id="path9477" />
    <path
       inkscape:connector-curvature="0"
       style="fill:none;stroke:#232323;stroke-width:0.625;stroke-linecap:butt;stroke-linejoin:round;stroke-miterlimit:10;stroke-opacity:1"
       d="m 698.30048,626.38394 h -5"
       id="path9479" />
    <g
       style="fill:#232323;fill-opacity:1"
       id="g9481"
       transform="matrix(1.25,0,0,1.25,7.0992982,496.78433)">
      <use
         height="100%"
         width="100%"
         xlink:href="#glyph0-3"
         x="43.194721"
         y="108.27775"
         id="use9483" />
      <use
         height="100%"
         width="100%"
         xlink:href="#glyph0-4"
         x="53.15736"
         y="108.27775"
         id="use9485" />
    </g>
    <path
       inkscape:connector-curvature="0"
       style="fill:none;stroke:#232323;stroke-width:0.625;stroke-linecap:butt;stroke-linejoin:round;stroke-miterlimit:10;stroke-opacity:1"
       d="m 93.50067,568.78628 h 5"
       id="path9487" />
    <path
       inkscape:connector-curvature="0"
       style="fill:none;stroke:#232323;stroke-width:0.625;stroke-linecap:butt;stroke-linejoin:round;stroke-miterlimit:10;stroke-opacity:1"
       d="m 698.30048,568.78628 h -5"
       id="path9489" />
    <g
       style="fill:#232323;fill-opacity:1"
       id="g9491"
       transform="matrix(1.25,0,0,1.25,7.0992982,496.78433)">
      <use
         height="100%"
         width="100%"
         xlink:href="#glyph0-3"
         x="43.194721"
         y="62.19775"
         id="use9493" />
      <use
         height="100%"
         width="100%"
         xlink:href="#glyph0-5"
         x="53.15736"
         y="62.19775"
         id="use9495" />
    </g>
    <g
       style="fill:#232323;fill-opacity:1"
       id="g9497"
       transform="matrix(1.25,0,0,1.25,7.0992982,496.78433)">
      <use
         height="100%"
         width="100%"
         xlink:href="#glyph3-1"
         x="33.881062"
         y="242.78658"
         id="use9499" />
      <use
         height="100%"
         width="100%"
         xlink:href="#glyph3-2"
         x="33.881062"
         y="231.72804"
         id="use9501" />
      <use
         height="100%"
         width="100%"
         xlink:href="#glyph3-3"
         x="33.881062"
         y="221.7654"
         id="use9503" />
      <use
         height="100%"
         width="100%"
         xlink:href="#glyph3-4"
         x="33.881062"
         y="216.24609"
         id="use9505" />
      <use
         height="100%"
         width="100%"
         xlink:href="#glyph3-5"
         x="33.881062"
         y="207.41919"
         id="use9507" />
      <use
         height="100%"
         width="100%"
         xlink:href="#glyph3-3"
         x="33.881062"
         y="197.45656"
         id="use9509" />
      <use
         height="100%"
         width="100%"
         xlink:href="#glyph3-6"
         x="33.881062"
         y="191.93726"
         id="use9511" />
      <use
         height="100%"
         width="100%"
         xlink:href="#glyph3-7"
         x="33.881062"
         y="186.41795"
         id="use9513" />
      <use
         height="100%"
         width="100%"
         xlink:href="#glyph3-8"
         x="33.881062"
         y="177.59105"
         id="use9515" />
    </g>
    <g
       style="fill:#232323;fill-opacity:1"
       id="g9533"
       transform="matrix(1.25,0,0,1.25,35.224299,500.08076)">
      <use
         height="100%"
         width="100%"
         xlink:href="#glyph2-1"
         x="185.76273"
         y="24.627735"
         id="use9535" />
    </g>
    <g
       style="fill:#232323;fill-opacity:1"
       id="g9537"
       transform="matrix(1.25,0,0,1.25,35.224299,500.53433)">
      <use
         height="100%"
         width="100%"
         xlink:href="#glyph6-1"
         x="196.70168"
         y="27.637749"
         id="use9539" />
    </g>
    <g
       style="fill:#232323;fill-opacity:1"
       id="g9557"
       transform="matrix(1.25,0,0,1.25,11.756301,500.53433)">
      <use
         height="100%"
         width="100%"
         xlink:href="#glyph2-1"
         x="229.30832"
         y="24.627735"
         id="use9559"
         transform="translate(0,-0.362856)" />
    </g>
    <g
       style="fill:#232323;fill-opacity:1"
       id="g9561"
       transform="matrix(1.25,0,0,1.25,11.63259,500.53433)">
      <use
         height="100%"
         width="100%"
         xlink:href="#glyph6-2"
         x="240.24727"
         y="27.637749"
         id="use9563" />
    </g>
    <g
       style="fill:#232323;fill-opacity:1"
       id="g9581"
       transform="matrix(1.25,0,0,1.25,-17.275693,500.08076)">
      <use
         height="100%"
         width="100%"
         xlink:href="#glyph2-1"
         x="277.69232"
         y="24.627735"
         id="use9583" />
    </g>
    <g
       style="fill:#232323;fill-opacity:1"
       id="g9585"
       transform="matrix(1.25,0,0,1.25,-17.948504,500.53433)">
      <use
         height="100%"
         width="100%"
         xlink:href="#glyph6-3"
         x="288.63126"
         y="27.637749"
         id="use9587" />
    </g>
    <g
       style="fill:#232323;fill-opacity:1"
       id="g9605"
       transform="matrix(1.25,0,0,1.25,-45.400694,500.08076)">
      <use
         height="100%"
         width="100%"
         xlink:href="#glyph2-1"
         x="326.07632"
         y="24.627735"
         id="use9607" />
    </g>
    <g
       style="fill:#232323;fill-opacity:1"
       id="g9609"
       transform="matrix(1.25,0,0,1.25,-45.400694,500.53433)">
      <use
         height="100%"
         width="100%"
         xlink:href="#glyph6-4"
         x="337.01526"
         y="27.637749"
         id="use9611" />
    </g>
    <rect
       style="fill:#ffffff;stroke-width:0.93749994"
       id="rect4092"
       width="43.43692"
       height="36.813992"
       x="281.28387"
       y="556.85754" />
    <rect
       style="fill:#ffffff;stroke-width:1.02945662"
       id="rect4092-0"
       width="43.43692"
       height="44.390137"
       x="311.59576"
       y="591.72034"
       inkscape:transform-center-x="-0.94701801"
       inkscape:transform-center-y="29.689627" />
    <rect
       style="fill:#ffffff;stroke-width:1.04037976"
       id="rect4092-9"
       width="43.43692"
       height="45.337154"
       x="341.90775"
       y="629.46234" />
    <rect
       style="fill:#ffffff;stroke-width:0.93749994"
       id="rect4092-3"
       width="43.43692"
       height="36.813992"
       x="372.21964"
       y="676.67444" />
    <path
       inkscape:connector-curvature="0"
       style="fill:none;stroke:#232323;stroke-width:0.625;stroke-linecap:butt;stroke-linejoin:round;stroke-miterlimit:10;stroke-opacity:1"
       d="m 341.38589,553.57484 v 5"
       id="path9337" />
    <g
       style="fill:#232323;fill-opacity:1"
       id="g9517"
       transform="matrix(1.25,0,0,1.25,25.951299,480.3766)">
      <use
         height="100%"
         width="100%"
         xlink:href="#glyph4-1"
         x="202.24858"
         y="80.639999"
         id="use9519" />
    </g>
    <g
       style="fill:#232323;fill-opacity:1"
       id="g9521"
       transform="matrix(1.25,0,0,1.25,25.951299,480.3766)">
      <use
         height="100%"
         width="100%"
         xlink:href="#glyph0-1"
         x="207.76767"
         y="80.639999"
         id="use9523" />
    </g>
    <g
       style="fill:#232323;fill-opacity:1"
       id="g9525"
       transform="matrix(1.25,0,0,1.25,25.951299,480.3766)">
      <use
         height="100%"
         width="100%"
         xlink:href="#glyph5-1"
         x="217.73032"
         y="73.407356"
         id="use9527" />
    </g>
    <g
       style="fill:#232323;fill-opacity:1"
       id="g9529"
       transform="matrix(1.25,0,0,1.25,24.076299,480.3766)">
      <use
         height="100%"
         width="100%"
         xlink:href="#glyph4-2"
         x="229.68501"
         y="80.639999"
         id="use9531" />
    </g>
    <g
       style="fill:#232323;fill-opacity:1"
       id="g9541"
       transform="matrix(1.25,0,0,1.25,1.5762985,519.7516)">
      <use
         height="100%"
         width="100%"
         xlink:href="#glyph4-1"
         x="246.44736"
         y="80.639999"
         id="use9543" />
    </g>
    <g
       style="fill:#232323;fill-opacity:1"
       id="g9545"
       transform="matrix(1.25,0,0,1.25,1.5762985,519.7516)">
      <use
         height="100%"
         width="100%"
         xlink:href="#glyph0-3"
         x="251.96646"
         y="80.639999"
         id="use9547" />
    </g>
    <g
       style="fill:#232323;fill-opacity:1"
       id="g9549"
       transform="matrix(1.25,0,0,1.25,1.5762985,519.7516)">
      <use
         height="100%"
         width="100%"
         xlink:href="#glyph5-1"
         x="261.92911"
         y="73.407356"
         id="use9551" />
    </g>
    <g
       style="fill:#232323;fill-opacity:1"
       id="g9553"
       transform="matrix(1.25,0,0,1.25,1.5762985,519.7516)">
      <use
         height="100%"
         width="100%"
         xlink:href="#glyph4-2"
         x="273.88379"
         y="80.639999"
         id="use9555" />
    </g>
    <g
       style="fill:#232323;fill-opacity:1"
       id="g9565"
       transform="matrix(1.25,0,0,1.25,-30.565204,559.35503)">
      <use
         height="100%"
         width="100%"
         xlink:href="#glyph4-1"
         x="295.55713"
         y="80.639999"
         id="use9567" />
    </g>
    <g
       style="fill:#232323;fill-opacity:1"
       id="g9569"
       transform="matrix(1.25,0,0,1.25,-30.565204,559.35503)">
      <use
         height="100%"
         width="100%"
         xlink:href="#glyph0-4"
         x="301.07623"
         y="80.639999"
         id="use9571" />
    </g>
    <g
       style="fill:#232323;fill-opacity:1"
       id="g9573"
       transform="matrix(1.25,0,0,1.25,-30.565204,559.35503)">
      <use
         height="100%"
         width="100%"
         xlink:href="#glyph5-1"
         x="311.03885"
         y="73.407356"
         id="use9575" />
    </g>
    <g
       style="fill:#232323;fill-opacity:1"
       id="g9577"
       transform="matrix(1.25,0,0,1.25,-30.565204,559.35503)">
      <use
         height="100%"
         width="100%"
         xlink:href="#glyph4-2"
         x="322.99356"
         y="80.639999"
         id="use9579" />
    </g>
    <g
       style="fill:#232323;fill-opacity:1"
       id="g9589"
       transform="matrix(1.25,0,0,1.25,-61.873914,599.67227)">
      <use
         height="100%"
         width="100%"
         xlink:href="#glyph4-1"
         x="344.66687"
         y="80.639999"
         id="use9591" />
    </g>
    <g
       style="fill:#232323;fill-opacity:1"
       id="g9593"
       transform="matrix(1.25,0,0,1.25,-61.873914,599.67227)">
      <use
         height="100%"
         width="100%"
         xlink:href="#glyph0-17"
         x="350.18597"
         y="80.639999"
         id="use9595" />
    </g>
    <g
       style="fill:#232323;fill-opacity:1"
       id="g9597"
       transform="matrix(1.25,0,0,1.25,-61.873914,599.67227)">
      <use
         height="100%"
         width="100%"
         xlink:href="#glyph5-1"
         x="360.14862"
         y="73.407356"
         id="use9599" />
    </g>
    <g
       style="fill:#232323;fill-opacity:1"
       id="g9601"
       transform="matrix(1.25,0,0,1.25,-61.873914,599.67227)">
      <use
         height="100%"
         width="100%"
         xlink:href="#glyph4-2"
         x="372.1033"
         y="80.639999"
         id="use9603" />
    </g>
    <g
       style="clip-rule:nonzero"
       clip-path="url(#clip3-2-7)"
       id="g9275-3"
       transform="matrix(1.25,0,0,1.25,186.23904,492.12719)">
      <path
         inkscape:connector-curvature="0"
         style="fill:none;stroke:#232323;stroke-width:2;stroke-linecap:butt;stroke-linejoin:round;stroke-miterlimit:10;stroke-dasharray:6, 6;stroke-opacity:0.8"
         d="M 286.84766,51.839844 V 397.44141"
         transform="matrix(1,0,0,-1,0,432)"
         id="path9277-5" />
    </g>
    <g
       style="fill:#232323;fill-opacity:1"
       id="g9533-6"
       transform="matrix(1.25,0,0,1.25,302.48905,500.08076)">
      <use
         height="100%"
         width="100%"
         xlink:href="#glyph2-1"
         x="185.76273"
         y="24.627735"
         id="use9535-2" />
    </g>
    <text
       xml:space="preserve"
       style="font-style:normal;font-weight:normal;font-size:17.30156898px;line-height:1.25;font-family:sans-serif;letter-spacing:0px;word-spacing:0px;fill:#000000;fill-opacity:1;stroke:none;stroke-width:0.43253919"
       x="489.24683"
       y="598.22052"
       id="text4331"
       transform="scale(1.1195337,0.89322903)"><tspan
         sodipodi:role="line"
         id="tspan4329"
         x="489.24683"
         y="598.22052"
         style="stroke-width:0.43253919">B</tspan></text>
  </g>
</svg>
